<svg xmlns="http://www.w3.org/2000/svg" viewBox="0 0 69.58 69.58"><defs><style>.cls-1{fill:#fff;}.cls-2{fill:#75acb4;}</style></defs><g id="Layer_2" data-name="Layer 2"><g id="Layer_1-2" data-name="Layer 1"><path class="cls-1" d="M34.79,0A34.79,34.79,0,1,0,69.58,34.79,34.8,34.8,0,0,0,34.79,0Zm15,45.22c0,7.1-5.89,12.61-14,12.61h-9c-3.58,0-5-2.43-5-4.48V16.23c0-2.05,1.47-4.48,5-4.48h9c8.13,0,14,5.44,14,12.61Z"/><path class="cls-1" d="M35.79,20.77H31.38v28h4.41a4.39,4.39,0,0,0,4.42-4.74V25.45A4.37,4.37,0,0,0,35.79,20.77Z"/><path class="cls-2" d="M35.79,11.75h-9c-3.58,0-5,2.43-5,4.48V53.35c0,2,1.47,4.48,5,4.48h9c8.13,0,14-5.51,14-12.61V24.36C49.81,17.19,43.92,11.75,35.79,11.75Zm4.42,32.32a4.39,4.39,0,0,1-4.42,4.74H31.38v-28h4.41a4.37,4.37,0,0,1,4.42,4.68Z"/></g></g></svg>